<?xml version="1.0" encoding="UTF-8"?>
<svg id="Capa_2" data-name="Capa 2" xmlns="http://www.w3.org/2000/svg" viewBox="0 0 217.86 48.02">
  <defs>
    <style>
      .cls-1 {
        fill: #9f043e;
      }

      .cls-2 {
        fill: #0056a4;
      }

      .cls-3 {
        fill: #eb5b25;
      }
    </style>
  </defs>
  <g id="Capa_1-2" data-name="Capa 1">
    <g>
      <g>
        <path class="cls-3" d="M18.97,18.97h0c2.79-2.79,7.3-2.79,10.09,0h0c2.79,2.79,2.79,7.3,0,10.09l-5.04,5.04-5.04-5.04c-2.79-2.79-2.79-7.3,0-10.09Z"/>
        <path class="cls-1" d="M47.88,24.36l-4.7,4.7-5.04-5.04-7.5-7.5c-3.66-3.66-9.6-3.66-13.26,0l-12.54,12.54L.14,24.36c-.19-.19-.19-.5,0-.69l4.7-4.7,14.12-14.12L23.67.14c.19-.19.5-.19.69,0l4.7,4.7,14.12,14.12,4.7,4.7c.19.19.19.5,0,.69Z"/>
        <path class="cls-2" d="M6.86,31.07l4.7-4.7c.19-.19.5-.19.69,0l11.42,11.42c.19.19.5.19.69,0l11.42-11.42c.19-.19.5-.19.69,0l4.7,4.7-12.11,12.11-4.7,4.7c-.19.19-.5.19-.69,0L6.86,31.07Z"/>
      </g>
      <g>
        <path class="cls-2" d="M64.62,6.01l9.56,26.33c.16.43.76.43.92,0l9.31-26.32c.07-.19.25-.32.46-.32h5.77c.34,0,.57.34.46.66l-13.47,36.14c-.07.19-.25.32-.46.32h-4.98c-.2,0-.38-.12-.45-.31L57.68,6.35c-.12-.32.11-.66.45-.66h6.02c.2,0,.39.13.46.32Z"/>
        <path class="cls-2" d="M99.35,5.69h5.89c.27,0,.49.22.49.49v36.04c0,.27-.22.49-.49.49h-5.89c-.27,0-.49-.22-.49-.49V6.18c0-.27.22-.49.49-.49Z"/>
        <path class="cls-2" d="M118.2,6.01l9.56,26.33c.16.43.76.43.92,0l9.31-26.32c.07-.19.25-.32.46-.32h5.77c.34,0,.57.34.46.66l-13.47,36.14c-.07.19-.25.32-.46.32h-4.98c-.2,0-.38-.12-.45-.31l-14.03-36.14c-.12-.32.11-.66.45-.66h6.02c.2,0,.39.13.46.32Z"/>
        <path class="cls-2" d="M156.88,5.69c.27,0,.49.22.49.49v18.2c0,9.34,3.8,12.04,9.08,12.04,4.96,0,8.82-3.75,8.82-12.3l-.05-17.94c0-.27.22-.49.49-.49h5.73c.27,0,.49.22.49.49v17.57c0,12.04-5.86,19.53-15.47,19.53s-15.84-7.5-15.79-19.01l.05-18.1c0-.27.22-.49.49-.49h5.68Z"/>
        <path class="cls-2" d="M202.76,43.23c-5.28,0-8.73-1.42-13.68-4.8-.18-.12-.26-.36-.18-.56l1.79-5c.1-.29.44-.41.71-.25,4.59,2.72,7.94,4.29,10.79,4.29,3.64,0,8.97-1.37,8.97-5.49,0-3.33-4.28-4.12-9.4-4.75-6.23-.79-13.41-2.01-13.41-10.56,0-9.29,9.08-11.35,14.68-11.35,4.9,0,9.35,1.46,13.59,4.48.18.13.25.36.17.56l-1.62,4.47c-.11.29-.45.41-.71.25-3.63-2.27-7.79-3.48-11.42-3.48-6.07,0-8.08,2.53-8.08,4.75,0,3.75,6.55,3.85,8.71,4.12,5.97.63,14.2,1.9,14.2,11.51s-9.13,11.83-15.1,11.83Z"/>
      </g>
    </g>
  </g>
</svg>